<svg width="24" height="24" viewBox="0 0 24 24" fill="none" xmlns="http://www.w3.org/2000/svg">
<g clip-path="url(#clip0_201_4523)">
<path d="M24 12C24 18.6274 18.6274 24 12 24C5.37258 24 0 18.6274 0 12C0 5.37258 5.37258 0 12 0C18.6274 0 24 5.37258 24 12Z" fill="#00C293"/>
<path d="M17.8601 8.57807L11.8285 16.0616C11.6069 16.3361 11.2349 16.5 10.8326 16.5C10.4767 16.5 10.1396 16.3715 9.90858 16.1472L6.19863 12.5565C5.9024 12.2696 5.94164 11.8483 6.28871 11.5972C6.62583 11.3525 7.19229 11.3478 7.53715 11.5874L10.6895 13.7767L16.3309 7.7869C16.6117 7.48899 17.1936 7.40855 17.5915 7.61454C18.0049 7.82861 18.1232 8.25207 17.8601 8.57807Z" fill="white"/>
</g>
<defs>
<clipPath id="clip0_201_4523">
<rect width="24" height="24" fill="white"/>
</clipPath>
</defs>
</svg>
