<svg width="22" height="22" viewBox="0 0 22 22" fill="none" xmlns="http://www.w3.org/2000/svg">
<path d="M3.43696 18.0078C4.53558 19.25 6.58031 19.25 10.6698 19.25H11.3302C15.4197 19.25 17.4644 19.25 18.563 18.0078M3.43696 18.0078C2.33833 16.7656 2.71515 14.8798 3.46879 11.108C4.00474 8.42576 4.27272 7.08462 5.29009 6.29231M3.43696 18.0078C3.43696 18.0078 3.43696 18.0078 3.43696 18.0078ZM18.563 18.0078C19.6617 16.7656 19.2848 14.8798 18.5312 11.108C17.9953 8.42576 17.7273 7.08462 16.7099 6.29231M18.563 18.0078C18.563 18.0078 18.563 18.0078 18.563 18.0078ZM16.7099 6.29231C15.6925 5.5 14.2384 5.5 11.3302 5.5H10.6698C7.76156 5.5 6.30746 5.5 5.29009 6.29231M16.7099 6.29231C16.7099 6.29231 16.7099 6.29231 16.7099 6.29231ZM5.29009 6.29231C5.29009 6.29231 5.29009 6.29231 5.29009 6.29231Z" stroke="#00C293" stroke-width="2"/>
<path d="M9.16663 12.5584C9.64393 12.988 9.91154 13.2289 10.3888 13.6584L12.8333 10.9084" stroke="#00C293" stroke-width="2" stroke-linecap="round" stroke-linejoin="round"/>
<path d="M8.25 5.49992V4.58325C8.25 3.06447 9.48122 1.83325 11 1.83325C12.5188 1.83325 13.75 3.06447 13.75 4.58325V5.49992" stroke="#00C293" stroke-width="2" stroke-linecap="round"/>
</svg>
