<svg width="22" height="22" viewBox="0 0 22 22" fill="none" xmlns="http://www.w3.org/2000/svg">
<path d="M7.0625 16.5C7.78737 16.5 8.375 17.1156 8.375 17.875C8.375 18.6344 7.78737 19.25 7.0625 19.25C6.33763 19.25 5.75 18.6344 5.75 17.875C5.75 17.1156 6.33763 16.5 7.0625 16.5Z" stroke="#00C293" stroke-width="2"/>
<path d="M14.9375 16.5001C15.6624 16.5001 16.25 17.1157 16.25 17.8751C16.25 18.6345 15.6624 19.2501 14.9375 19.2501C14.2126 19.2501 13.625 18.6345 13.625 17.8751C13.625 17.1157 14.2126 16.5001 14.9375 16.5001Z" stroke="#00C293" stroke-width="2"/>
<path d="M2.47856 2.83418L2.82418 1.89581L2.47856 2.83418ZM2.59562 1.81163C2.07737 1.62074 1.50251 1.88613 1.31163 2.40438C1.12074 2.92263 1.38613 3.49749 1.90438 3.68837L2.59562 1.81163ZM4.51261 3.96273L5.35017 3.4164L5.35017 3.4164L4.51261 3.96273ZM5.65175 13.3707L4.91031 14.0417H4.91031L5.65175 13.3707ZM18.5755 9.05919L19.5568 9.25223L19.5579 9.24635L18.5755 9.05919ZM18.1383 11.2818L19.1195 11.4749V11.4749L18.1383 11.2818ZM18.6427 6.13899L17.8367 6.73087V6.73087L18.6427 6.13899ZM17.2419 13.7962L16.5926 13.0357L17.2419 13.7962ZM5.83832 8.94667V6.45183H3.83832V8.94667H5.83832ZM2.82418 1.89581L2.59562 1.81163L1.90438 3.68837L2.13294 3.77256L2.82418 1.89581ZM10.0703 15.2083H14.7103V13.2083H10.0703V15.2083ZM5.83832 6.45183C5.83832 5.80946 5.83956 5.25162 5.79231 4.79431C5.74299 4.31697 5.63343 3.85064 5.35017 3.4164L3.67504 4.50907C3.7175 4.57416 3.77079 4.68912 3.8029 4.99987C3.83708 5.33065 3.83832 5.76769 3.83832 6.45183H5.83832ZM2.13294 3.77256C2.72526 3.99072 3.08483 4.125 3.34336 4.25789C3.57337 4.37613 3.6377 4.45182 3.67504 4.50907L5.35017 3.4164C5.06181 2.97432 4.67856 2.69547 4.2577 2.47913C3.86535 2.27745 3.37075 2.09712 2.82418 1.89581L2.13294 3.77256ZM3.83832 8.94667C3.83832 10.2716 3.84949 11.2564 3.97385 12.017C4.1093 12.8455 4.38566 13.462 4.91031 14.0417L6.3932 12.6996C6.15975 12.4417 6.02939 12.1943 5.94765 11.6943C5.85481 11.1265 5.83832 10.3182 5.83832 8.94667H3.83832ZM10.0703 13.2083C8.819 13.2083 7.99153 13.2058 7.37715 13.1145C6.8026 13.0291 6.56101 12.8851 6.3932 12.6996L4.91031 14.0417C5.5006 14.6939 6.24813 14.9687 7.08325 15.0928C7.87855 15.2109 8.88129 15.2083 10.0703 15.2083V13.2083ZM4.83832 6.61H15.4527V4.61H4.83832V6.61ZM17.5944 8.86615L17.1571 11.0888L19.1195 11.4749L19.5567 9.25223L17.5944 8.86615ZM15.4527 6.61C16.2093 6.61 16.8444 6.61146 17.3386 6.66934C17.5829 6.69794 17.7444 6.73556 17.8423 6.77161C17.9455 6.80963 17.8999 6.817 17.8367 6.73087L19.4487 5.54711C19.1912 5.19649 18.834 5.00549 18.5332 4.89473C18.2269 4.78199 17.8916 4.72043 17.5712 4.68291C16.9361 4.60854 16.1705 4.61 15.4527 4.61V6.61ZM19.5579 9.24635C19.7045 8.47683 19.8348 7.80339 19.867 7.25848C19.9001 6.69587 19.8439 6.08525 19.4487 5.54711L17.8367 6.73087C17.8388 6.73376 17.849 6.74559 17.8591 6.79492C17.8713 6.85428 17.8811 6.95936 17.8704 7.14085C17.8478 7.52525 17.7503 8.04741 17.5932 8.87203L19.5579 9.24635ZM14.7103 15.2083C15.3671 15.2083 15.9544 15.2102 16.4345 15.1487C16.9454 15.0832 17.4487 14.9345 17.8912 14.5567L16.5926 13.0357C16.5524 13.07 16.4729 13.1274 16.1801 13.1649C15.8565 13.2064 15.4195 13.2083 14.7103 13.2083V15.2083ZM17.1571 11.0888C17.0145 11.8132 16.9229 12.2708 16.8158 12.6038C16.7159 12.9142 16.6377 12.9972 16.5926 13.0357L17.8912 14.5567C18.3289 14.183 18.561 13.7096 18.7197 13.2162C18.8711 12.7455 18.9862 12.1519 19.1195 11.4749L17.1571 11.0888Z" fill="#00C293"/>
<path d="M11.875 11.9167V10.0833M11.875 10.0833V8.25M11.875 10.0833H13.625M11.875 10.0833H10.125" stroke="#00C293" stroke-width="2" stroke-linecap="round"/>
</svg>
