<svg width="22" height="23" viewBox="0 0 22 23" fill="none" xmlns="http://www.w3.org/2000/svg">
<path d="M6.875 17C7.63439 17 8.25 17.6156 8.25 18.375C8.25 19.1344 7.63439 19.75 6.875 19.75C6.11561 19.75 5.5 19.1344 5.5 18.375C5.5 17.6156 6.11561 17 6.875 17Z" stroke="white" stroke-width="2"/>
<path d="M15.125 17.0001C15.8844 17.0001 16.5 17.6157 16.5 18.3751C16.5 19.1345 15.8844 19.7501 15.125 19.7501C14.3656 19.7501 13.75 19.1345 13.75 18.3751C13.75 17.6157 14.3656 17.0001 15.125 17.0001Z" stroke="white" stroke-width="2"/>
<path d="M2.07147 3.33418L2.40315 2.39079V2.39079L2.07147 3.33418ZM2.16371 2.30661C1.64269 2.12343 1.07182 2.3973 0.888638 2.91832C0.705458 3.43934 0.979332 4.01021 1.50035 4.19339L2.16371 2.30661ZM4.20238 4.46273L5.02802 3.89853L5.02802 3.89853L4.20238 4.46273ZM5.39577 13.8707L4.67009 14.5587L4.67009 14.5587L5.39577 13.8707ZM18.935 9.55919L19.9144 9.76106L19.9156 9.75493L18.935 9.55919ZM18.4769 11.7818L19.4563 11.9837L19.4563 11.9837L18.4769 11.7818ZM19.0053 6.63899L18.2127 7.24873V7.24873L19.0053 6.63899ZM17.5378 14.2962L16.9061 13.521H16.9061L17.5378 14.2962ZM5.5436 9.44667V6.95183H3.5436V9.44667H5.5436ZM2.40315 2.39079L2.16371 2.30661L1.50035 4.19339L1.7398 4.27758L2.40315 2.39079ZM10.0247 15.7083H14.8857V13.7083H10.0247V15.7083ZM5.5436 6.95183C5.5436 6.31043 5.54496 5.74973 5.49514 5.28947C5.44289 4.80674 5.32644 4.33524 5.02802 3.89853L3.37675 5.02693C3.41954 5.08956 3.47371 5.19935 3.50676 5.5047C3.54224 5.83253 3.5436 6.26671 3.5436 6.95183H5.5436ZM1.7398 4.27758C2.35878 4.4952 2.74041 4.63109 3.01589 4.76627C3.26522 4.8886 3.33688 4.9686 3.37675 5.02694L5.02802 3.89853C4.72666 3.45753 4.32943 3.18299 3.89689 2.97076C3.49051 2.77136 2.9773 2.59265 2.40315 2.39079L1.7398 4.27758ZM3.5436 9.44667C3.5436 10.7705 3.55519 11.7595 3.68621 12.5245C3.8296 13.3617 4.12227 13.9809 4.67009 14.5587L6.12146 13.1826C5.87507 12.9228 5.74166 12.6782 5.65751 12.1869C5.56101 11.6234 5.5436 10.8192 5.5436 9.44667H3.5436ZM10.0247 13.7083C8.7167 13.7083 7.84171 13.706 7.18979 13.6135C6.57234 13.526 6.30435 13.3755 6.12146 13.1826L4.67009 14.5587C5.2814 15.2035 6.04963 15.4719 6.90898 15.5937C7.73386 15.7107 8.77624 15.7083 10.0247 15.7083V13.7083ZM4.5436 7.11H15.6635V5.11H4.5436V7.11ZM17.9556 9.35732L17.4975 11.58L19.4563 11.9837L19.9144 9.76105L17.9556 9.35732ZM15.6635 7.11C16.4543 7.11 17.1257 7.11134 17.6499 7.16993C17.9095 7.19896 18.0862 7.23762 18.1972 7.27662C18.3162 7.31843 18.2763 7.33135 18.2127 7.24873L19.7979 6.02925C19.5309 5.68214 19.1646 5.49668 18.8602 5.38972C18.5478 5.27994 18.204 5.21942 17.8721 5.18231C17.2132 5.10866 16.4172 5.11 15.6635 5.11V7.11ZM19.9156 9.75493C20.069 8.98671 20.2063 8.30988 20.2402 7.76127C20.2754 7.19088 20.2146 6.57088 19.7979 6.02925L18.2127 7.24873C18.2149 7.2516 18.2237 7.26058 18.233 7.30406C18.2447 7.3584 18.255 7.45908 18.244 7.63806C18.2205 8.01876 18.1192 8.53753 17.9543 9.36345L19.9156 9.75493ZM14.8857 15.7083C15.5761 15.7083 16.1845 15.7101 16.6802 15.6494C17.2032 15.5854 17.7158 15.4411 18.1696 15.0714L16.9061 13.521C16.8541 13.5634 16.7562 13.6252 16.4372 13.6642C16.0911 13.7066 15.6262 13.7083 14.8857 13.7083V15.7083ZM17.4975 11.58C17.348 12.3052 17.2524 12.7602 17.1411 13.0907C17.0384 13.3952 16.9581 13.4786 16.9061 13.521L18.1696 15.0714C18.6233 14.7017 18.8681 14.2287 19.0363 13.7294C19.1958 13.2561 19.3169 12.6599 19.4563 11.9837L17.4975 11.58Z" fill="white"/>
<path d="M11.9154 12.4167V10.5833M11.9154 10.5833V8.75M11.9154 10.5833H13.7487M11.9154 10.5833H10.082" stroke="white" stroke-width="2" stroke-linecap="round"/>
</svg>
