<svg width="20" height="20" viewBox="0 0 20 20" fill="none" xmlns="http://www.w3.org/2000/svg">
<g id="Linear / Astronomy / Earth" clip-path="url(#clip0_127_7019)">
<circle id="Vector" cx="10.0001" cy="10.0001" r="8.33333" stroke="#00C293" stroke-width="2"/>
<path id="Vector_2" d="M5 3.92536C5.6502 4.51746 6.98962 6.13588 7.14567 7.87273C7.29154 9.4962 8.36309 10.8154 10 10.8333C10.6291 10.8401 11.2653 10.3857 11.2637 9.75656C11.2632 9.56202 11.231 9.36312 11.1808 9.18013C11.1109 8.92561 11.1047 8.63279 11.25 8.33325C11.7582 7.28537 12.7578 7.00389 13.5499 6.4348C13.9012 6.18241 14.2216 5.91614 14.3629 5.70167C14.7531 5.10957 15.1432 3.92536 14.9481 3.33325" stroke="#00C293" stroke-width="2"/>
<path id="Vector_3" d="M18.3333 10.8333C18.0588 11.6091 17.8645 13.6458 14.7651 13.6781C14.7651 13.6781 12.0204 13.6781 11.197 15.2298C10.5382 16.4712 10.9225 17.816 11.197 18.3333" stroke="#00C293" stroke-width="2"/>
</g>
<defs>
<clipPath id="clip0_127_7019">
<rect width="20" height="20" fill="white"/>
</clipPath>
</defs>
</svg>
