<svg width="124" height="24" viewBox="0 0 124 24" fill="none" xmlns="http://www.w3.org/2000/svg">
<path d="M41.913 5.77734V7.35059H42.5783C44.7901 7.35059 46.43 7.78418 47.4979 8.65137C48.5659 9.51855 49.0999 10.7168 49.0999 12.2461C49.0999 13.7812 48.5659 14.9824 47.4979 15.8496C46.4358 16.7109 44.793 17.1416 42.5696 17.1416H41.913V18.9258H39.1556V17.1416H38.4991C36.2698 17.1416 34.6241 16.708 33.5619 15.8408C32.4998 14.9736 31.9688 13.7754 31.9688 12.2461C31.9688 10.7109 32.5027 9.5127 33.5707 8.65137C34.6386 7.78418 36.2785 7.35059 38.4903 7.35059H39.1556V5.77734H41.913ZM42.6133 9.43359H41.913V15.0938H42.6133C43.9964 15.0938 44.9535 14.8535 45.4846 14.373C46.0215 13.8926 46.2899 13.1924 46.2899 12.2725C46.2899 11.3643 46.0215 10.6641 45.4846 10.1719C44.9535 9.67969 43.9964 9.43359 42.6133 9.43359ZM38.4553 9.43359C37.078 9.43359 36.121 9.67676 35.5841 10.1631C35.0472 10.6436 34.7787 11.3408 34.7787 12.2549C34.7787 13.1689 35.0472 13.8721 35.5841 14.3643C36.121 14.8506 37.078 15.0938 38.4553 15.0938H39.1556V9.43359H38.4553Z" fill="#00C293"/>
<path d="M48.9735 18.75L54.5321 5.90039H57.3333L62.9095 18.75H59.7844L56.2654 10.0049C56.1661 9.75293 56.0815 9.50977 56.0115 9.27539C55.9415 9.04102 55.8744 8.82129 55.8102 8.61621H55.7401C55.6759 8.82129 55.6088 9.04102 55.5388 9.27539C55.4746 9.50977 55.3929 9.75293 55.2937 10.0049L51.7484 18.75H48.9735ZM51.7046 15.9463L52.4487 13.8984H59.2679L60.0207 15.9463H51.7046Z" fill="#00C293"/>
<path d="M64.1175 18.75V5.95312H70.1313C71.7829 5.95312 73.0434 6.31641 73.9129 7.04297C74.7883 7.76953 75.226 8.83594 75.226 10.2422C75.226 11.6191 74.7912 12.6855 73.9217 13.4414C73.0522 14.1973 71.7829 14.5635 70.1138 14.54H66.9625V18.75H64.1175ZM66.9625 12.4834H69.7549C70.7178 12.4834 71.3977 12.293 71.7945 11.9121C72.1914 11.5312 72.3898 10.9805 72.3898 10.2598C72.3898 9.5332 72.1914 8.98535 71.7945 8.61621C71.3977 8.24707 70.7178 8.0625 69.7549 8.0625H66.9625V12.4834Z" fill="#00C293"/>
<path d="M77.038 18.75V5.95312H80.3645L84.47 14.7422C84.5517 14.9297 84.6334 15.1172 84.7151 15.3047C84.8026 15.4922 84.8668 15.6562 84.9077 15.7969H84.9514C84.9923 15.6562 85.0507 15.4922 85.1265 15.3047C85.2024 15.1113 85.2812 14.9238 85.3629 14.7422L89.5209 5.95312H92.9174V18.75H90.1162V10.5674C90.1162 10.3916 90.122 10.2041 90.1337 10.0049C90.1453 9.80566 90.157 9.61816 90.1687 9.44238H90.1074C90.0724 9.61816 90.0257 9.80566 89.9674 10.0049C89.909 10.2041 89.8419 10.3916 89.766 10.5674L85.9319 18.75H83.6296L79.813 10.5762C79.7313 10.4004 79.6612 10.2158 79.6029 10.0225C79.5445 9.82324 79.4949 9.63281 79.4541 9.45117H79.3928C79.4045 9.63281 79.4161 9.82324 79.4278 10.0225C79.4395 10.2158 79.4453 10.4033 79.4453 10.585L79.4541 18.75H77.038Z" fill="#00C293"/>
<path d="M95.1233 12.5889V12.1143C95.1233 9.94629 95.7507 8.33496 97.0054 7.28027C98.2601 6.22559 99.8941 5.69824 101.907 5.69824C103.775 5.69824 105.257 6.08203 106.354 6.84961C107.452 7.61133 108.053 8.75684 108.158 10.2861L108.175 10.5322H105.295L105.286 10.2773C105.211 9.42188 104.884 8.80078 104.306 8.41406C103.728 8.02148 102.917 7.8252 101.872 7.8252C100.723 7.8252 99.8007 8.15332 99.1063 8.80957C98.4176 9.46582 98.0733 10.4883 98.0733 11.877V12.8262C98.0733 14.2734 98.4176 15.3135 99.1063 15.9463C99.7949 16.5791 100.717 16.8955 101.872 16.8955C103.045 16.8955 103.889 16.6758 104.402 16.2363C104.922 15.791 105.216 15.1904 105.286 14.4346L105.304 14.1797H108.175L108.166 14.4434C108.073 15.873 107.495 16.9922 106.433 17.8008C105.371 18.6035 103.865 19.0049 101.916 19.0049C99.8795 19.0049 98.2367 18.4834 96.9879 17.4404C95.7448 16.3916 95.1233 14.7744 95.1233 12.5889Z" fill="#00C293"/>
<path d="M122.12 18.75H119.336V10.752C119.336 10.5527 119.339 10.3447 119.345 10.1279C119.351 9.91113 119.36 9.71191 119.371 9.53027H119.249C119.167 9.71191 119.085 9.88477 119.004 10.0488C118.922 10.2129 118.808 10.3975 118.662 10.6025L112.937 18.75H109.9V5.95312H112.683V13.9248C112.683 14.1123 112.68 14.3174 112.675 14.54C112.669 14.7568 112.663 14.9561 112.657 15.1377H112.788C112.853 14.9854 112.928 14.8184 113.016 14.6367C113.109 14.4551 113.223 14.2705 113.357 14.083L119.082 5.95312H122.12V18.75Z" fill="#00C293"/>
<path d="M0 8.82251C0 5.5088 2.66085 2.54172 5.94317 2.19534L20.8011 0.627412C24.0834 0.281035 26.7443 2.68653 26.7443 6.00024V15.0002C26.7443 18.3139 24.0834 21.281 20.8011 21.6274L5.94317 23.1953C2.66085 23.5417 0 21.1362 0 17.8225V8.82251Z" fill="#00C293"/>
<path d="M14.7389 5.16948V6.74272L15.4006 6.6729C17.6002 6.44078 19.2311 6.70227 20.2932 7.45737C21.3554 8.21248 21.8864 9.35468 21.8864 10.884C21.8864 12.4191 21.3554 13.6763 20.2932 14.6556C19.2369 15.6284 17.6031 16.2315 15.3919 16.4648L14.7389 16.5337V18.3179L11.9966 18.6073V16.8231L11.3437 16.892C9.12659 17.126 7.4899 16.8651 6.43359 16.1094C5.37729 15.3537 4.84914 14.2112 4.84914 12.6819C4.84914 11.1467 5.38019 9.89244 6.4423 8.91903C7.50441 7.93976 9.1353 7.33407 11.335 7.10194L11.9966 7.03212V5.45887L14.7389 5.16948ZM15.4354 8.75224L14.7389 8.82573V14.4859L15.4354 14.4124C16.8109 14.2672 17.7628 13.9266 18.2909 13.3904C18.8249 12.8535 19.0918 12.1252 19.0918 11.2052C19.0918 10.297 18.8249 9.62502 18.2909 9.18918C17.7628 8.75273 16.8109 8.60708 15.4354 8.75224ZM11.3001 9.18862C9.93043 9.33316 8.97859 9.67677 8.44464 10.2194C7.91068 10.7563 7.6437 11.4817 7.6437 12.3958C7.6437 13.3098 7.91068 13.9848 8.44464 14.4206C8.97859 14.8506 9.93043 14.9933 11.3001 14.8488L11.9966 14.7753V9.11512L11.3001 9.18862Z" fill="white"/>
</svg>
