<svg width="32" height="32" viewBox="0 0 32 32" fill="none" xmlns="http://www.w3.org/2000/svg">
<g clip-path="url(#clip0_1402_18810)">
<rect width="32" height="32" rx="16" fill="#FF8800"/>
<path fill-rule="evenodd" clip-rule="evenodd" d="M15.9871 16.3274C13.2465 16.3274 10.9705 14.0753 10.9705 11.4096C10.9705 8.65197 13.2465 6.3999 15.9871 6.3999C18.8205 6.3999 21.0036 8.65197 21.0036 11.4096C21.0036 14.0753 18.8205 16.3274 15.9871 16.3274ZM15.9871 9.29541C14.8258 9.29541 13.9433 10.2606 13.9433 11.4096C13.9433 12.5586 14.8258 13.4318 15.9871 13.4318C17.1948 13.4318 18.0309 12.5586 18.0309 11.4096C18.0309 10.2606 17.1948 9.29541 15.9871 9.29541ZM17.9844 20.4179L20.8178 23.1295C21.3752 23.727 21.3752 24.6003 20.8178 25.1518C20.214 25.7493 19.285 25.7493 18.8205 25.1518L15.9871 22.3942L13.2465 25.1518C12.9678 25.4276 12.5963 25.5655 12.1782 25.5655C11.8531 25.5655 11.4815 25.4276 11.1563 25.1518C10.5989 24.6003 10.5989 23.727 11.1563 23.1295L14.0362 20.4179C12.9678 20.0961 11.9924 19.6825 11.0634 19.131C10.3667 18.7633 10.2273 17.8441 10.5989 17.1547C11.0634 16.4653 11.8995 16.2814 12.6427 16.741C14.6865 17.982 17.2877 17.982 19.3314 16.741C20.0746 16.2814 20.9572 16.4653 21.3752 17.1547C21.7933 17.8441 21.6074 18.7633 20.9572 19.131C20.0746 19.6825 19.0527 20.0961 17.9844 20.4179Z" fill="white"/>
</g>
<defs>
<clipPath id="clip0_1402_18810">
<rect width="32" height="32" fill="white"/>
</clipPath>
</defs>
</svg>
