<svg width="41" height="46" viewBox="0 0 41 46" fill="none" xmlns="http://www.w3.org/2000/svg">
<g clip-path="url(#clip0_1402_18967)" filter="url(#filter0_d_1402_18967)">
<path d="M32.5 15.7073C32.5 24.7273 24.3953 31.2764 21.5071 33.3238C20.8962 33.7569 20.1038 33.7569 19.4929 33.3238C16.6047 31.2764 8.5 24.7273 8.5 15.7073C8.5 9.24154 13.8726 4 20.5 4C27.1274 4 32.5 9.24154 32.5 15.7073Z" fill="#00C293"/>
<path d="M18.5 12C18.5 10.8954 19.3954 10 20.5 10C21.6046 10 22.5 10.8954 22.5 12V20C22.5 21.1046 21.6046 22 20.5 22C19.3954 22 18.5 21.1046 18.5 20V12Z" fill="white"/>
<path d="M24.5 14C25.6046 14 26.5 14.8954 26.5 16C26.5 17.1046 25.6046 18 24.5 18L16.5 18C15.3954 18 14.5 17.1046 14.5 16C14.5 14.8954 15.3954 14 16.5 14L24.5 14Z" fill="white"/>
</g>
<defs>
<filter id="filter0_d_1402_18967" x="0.5" y="0" width="40" height="46" filterUnits="userSpaceOnUse" color-interpolation-filters="sRGB">
<feFlood flood-opacity="0" result="BackgroundImageFix"/>
<feColorMatrix in="SourceAlpha" type="matrix" values="0 0 0 0 0 0 0 0 0 0 0 0 0 0 0 0 0 0 127 0" result="hardAlpha"/>
<feOffset dy="4"/>
<feGaussianBlur stdDeviation="4"/>
<feColorMatrix type="matrix" values="0 0 0 0 0 0 0 0 0 0 0 0 0 0 0 0 0 0 0.14 0"/>
<feBlend mode="normal" in2="BackgroundImageFix" result="effect1_dropShadow_1402_18967"/>
<feBlend mode="normal" in="SourceGraphic" in2="effect1_dropShadow_1402_18967" result="shape"/>
</filter>
<clipPath id="clip0_1402_18967">
<rect width="24" height="30" fill="white" transform="translate(8.5 4)"/>
</clipPath>
</defs>
</svg>
