<svg width="28" height="28" viewBox="0 0 28 28" fill="none" xmlns="http://www.w3.org/2000/svg">
<path d="M10.2042 5.21101C11.8931 2.18134 12.7375 0.666504 14 0.666504C15.2625 0.666504 16.1069 2.18134 17.7958 5.211L18.2327 5.99481C18.7126 6.85575 18.9526 7.28622 19.3267 7.57025C19.7009 7.85427 20.1669 7.9597 21.0988 8.17057L21.9473 8.36254C25.2268 9.10458 26.8666 9.4756 27.2568 10.7301C27.6469 11.9847 26.529 13.2919 24.2932 15.9064L23.7148 16.5828C23.0794 17.3258 22.7618 17.6972 22.6188 18.1568C22.4759 18.6164 22.524 19.112 22.62 20.1032L22.7075 21.0057C23.0455 24.494 23.2145 26.2381 22.1931 27.0135C21.1718 27.7888 19.6364 27.0819 16.5658 25.6681L15.7713 25.3023C14.8988 24.9005 14.4625 24.6996 14 24.6996C13.5375 24.6996 13.1012 24.9005 12.2286 25.3023L11.4342 25.6681C8.36356 27.0819 6.82822 27.7888 5.80685 27.0135C4.78548 26.2381 4.9545 24.494 5.29252 21.0057L5.37997 20.1032C5.47602 19.112 5.52405 18.6164 5.38114 18.1568C5.23823 17.6972 4.92056 17.3258 4.28521 16.5828L3.70679 15.9064C1.47099 13.2919 0.353089 11.9847 0.743218 10.7301C1.13335 9.4756 2.77313 9.10458 6.05271 8.36254L6.90117 8.17057C7.83312 7.95971 8.2991 7.85427 8.67325 7.57025C9.0474 7.28622 9.28736 6.85575 9.76728 5.99482L10.2042 5.21101Z" fill="#E1E1E6"/>
</svg>
