<svg width="32" height="32" viewBox="0 0 32 32" fill="none" xmlns="http://www.w3.org/2000/svg">
<g clip-path="url(#clip0_1402_18811)">
<rect width="32" height="32" rx="16" fill="#28AEE9"/>
<path d="M6.78745 15.4464C12.2034 13.2348 19.2115 10.5384 20.1793 10.1651C22.7168 9.18845 23.4955 9.37544 23.1073 11.5389C22.8283 13.0938 22.0241 18.2413 21.3825 21.4454C21.0021 23.3456 20.1483 23.5707 18.8063 22.7486C18.1609 22.353 14.9028 20.3529 14.1954 19.8832C13.55 19.4553 12.6597 18.9403 13.7762 17.9262C14.1737 17.5652 16.7779 15.2565 18.8071 13.4599C19.0728 13.224 18.7389 12.8363 18.4321 13.0255C15.697 14.7092 11.9051 17.0459 11.4224 17.3501C10.6933 17.8097 9.99284 18.0205 8.73609 17.6853C7.78618 17.4321 6.85873 17.1301 6.49767 17.015C5.10688 16.5719 5.43695 15.998 6.78745 15.4464Z" fill="white"/>
</g>
<defs>
<clipPath id="clip0_1402_18811">
<rect width="32" height="32" fill="white"/>
</clipPath>
</defs>
</svg>
