<svg width="32" height="32" viewBox="0 0 32 32" fill="none" xmlns="http://www.w3.org/2000/svg">
<g clip-path="url(#clip0_1402_18813)">
<rect width="32" height="32" rx="16" fill="#7360F2"/>
<path d="M15.8511 9.27539C15.4871 9.27539 15.4871 9.84267 15.8511 9.84739C18.6752 9.86914 21.001 11.8376 21.0266 15.4483C21.0266 15.8293 21.5844 15.8246 21.5797 15.4436H21.5787C21.5485 11.553 19.009 9.29714 15.8511 9.27539Z" fill="white"/>
<path d="M19.5681 14.8497C19.5596 15.2259 20.1165 15.2439 20.1212 14.8629C20.1675 12.7176 18.8448 10.9506 16.3592 10.7643C15.9952 10.7378 15.9574 11.3098 16.3204 11.3363C18.4761 11.4999 19.6116 12.971 19.5681 14.8497Z" fill="white"/>
<path d="M18.9685 17.2898C18.5015 17.0194 18.0259 17.1876 17.8293 17.4533L17.418 17.9856C17.209 18.256 16.8186 18.2201 16.8186 18.2201C13.969 17.4666 13.2069 14.4846 13.2069 14.4846C13.2069 14.4846 13.1719 14.0809 13.4329 13.8644L13.9472 13.4389C14.2044 13.2347 14.367 12.743 14.1051 12.2599C13.4055 10.9958 12.9356 10.56 12.6964 10.2253C12.4449 9.91044 12.0667 9.83953 11.6734 10.0523H11.6649C10.847 10.5307 9.95169 11.426 10.2382 12.3478C10.727 13.3198 11.6252 16.418 14.488 18.759C15.8334 19.8661 17.9626 21.0007 18.8664 21.2626L18.8749 21.2758C19.7656 21.5727 20.6316 20.6424 21.0939 19.8V19.7933C21.2991 19.3858 21.231 19.0001 20.9313 18.7477C20.4 18.2295 19.5982 17.6575 18.9685 17.2898Z" fill="white"/>
<path d="M16.7442 12.8744C17.6528 12.9273 18.0934 13.4019 18.1406 14.3767C18.1577 14.7577 18.7108 14.7313 18.6937 14.3502C18.6332 13.0776 17.9695 12.3685 16.7745 12.3024C16.4104 12.2806 16.3764 12.8526 16.7442 12.8744Z" fill="white"/>
<path d="M26.1891 18.3477C26.8661 12.6494 25.8639 9.05195 24.0562 7.42482L24.0571 7.42387C21.1394 4.64516 11.2859 4.23389 7.79522 7.54867C6.22764 9.17013 5.67549 11.5499 5.61498 14.4959C5.55448 17.4429 5.48262 22.9635 10.6269 24.4611H10.6316L10.6269 26.7481C10.6269 26.7481 10.5919 27.6747 11.1837 27.8609C11.8607 28.0803 12.167 27.6501 14.2726 25.1352C17.7935 25.4406 20.4975 24.7409 20.8047 24.6388C21.5157 24.4006 25.5387 23.8683 26.1891 18.3477ZM14.6195 23.526C14.6195 23.526 12.3911 26.3047 11.6981 27.0261C11.4712 27.2606 11.2225 27.2388 11.2263 26.7737C11.2263 26.4683 11.2433 22.9767 11.2433 22.9767C6.8819 21.7268 7.13907 17.026 7.18634 14.5668C7.23361 12.1067 7.68365 10.092 9.01108 8.73522C12.0734 5.86386 20.7121 6.50583 22.9131 8.5745C25.6039 10.9599 24.6461 17.6991 24.6518 17.9289C24.0987 22.5371 20.8388 22.8292 20.2394 23.0287C19.9831 23.1138 17.6053 23.7255 14.6195 23.526Z" fill="white"/>
</g>
<defs>
<clipPath id="clip0_1402_18813">
<rect width="32" height="32" fill="white"/>
</clipPath>
</defs>
</svg>
