<svg width="32" height="32" viewBox="0 0 32 32" fill="none" xmlns="http://www.w3.org/2000/svg">
<g clip-path="url(#clip0_1402_18812)">
<rect width="32" height="32" rx="16" fill="#25D366"/>
<path fill-rule="evenodd" clip-rule="evenodd" d="M23.7695 8.2227C21.8142 6.27448 19.2138 5.20109 16.4435 5.19995C10.735 5.19995 6.08917 9.82346 6.08687 15.5061C6.08611 17.3227 6.56294 19.096 7.46928 20.659L6 26L11.4902 24.5667C13.003 25.3879 14.7061 25.8207 16.4393 25.8212H16.4436C22.1515 25.8212 26.7978 21.1973 26.8 15.5144C26.8011 12.7603 25.7249 10.1708 23.7695 8.2227ZM16.4435 24.0805H16.4399C14.8954 24.0799 13.3806 23.6668 12.0588 22.8864L11.7446 22.7007L8.4866 23.5513L9.3562 20.39L9.15146 20.0659C8.28977 18.7019 7.83475 17.1254 7.83551 15.5068C7.8373 10.7835 11.6989 6.94073 16.4469 6.94073C18.7461 6.94149 20.9075 7.83372 22.5326 9.45301C24.1578 11.0723 25.0523 13.2247 25.0515 15.5138C25.0494 20.2374 21.1881 24.0805 16.4435 24.0805ZM21.1651 17.6645C20.9064 17.5355 19.6341 16.9126 19.3968 16.8266C19.1598 16.7406 18.9871 16.6978 18.8148 16.9556C18.6422 17.2133 18.1463 17.7934 17.9953 17.9652C17.8443 18.1371 17.6935 18.1587 17.4347 18.0297C17.1758 17.9008 16.3421 17.6288 15.3536 16.7514C14.5844 16.0685 14.0651 15.2252 13.914 14.9675C13.7633 14.7095 13.9128 14.5836 14.0276 14.4419C14.3077 14.0957 14.5882 13.7327 14.6744 13.561C14.7608 13.3891 14.7176 13.2386 14.6528 13.1098C14.5882 12.9809 14.0707 11.7133 13.8551 11.1975C13.6449 10.6955 13.4317 10.7633 13.2728 10.7554C13.122 10.7479 12.9494 10.7464 12.7768 10.7464C12.6043 10.7464 12.324 10.8108 12.0867 11.0687C11.8496 11.3266 11.1811 11.9495 11.1811 13.2172C11.1811 14.4848 12.1084 15.7094 12.2377 15.8813C12.3671 16.0532 14.0625 18.6544 16.6583 19.7699C17.2757 20.0354 17.7577 20.1937 18.1336 20.3125C18.7535 20.5085 19.3175 20.4808 19.7635 20.4145C20.2607 20.3405 21.2944 19.7914 21.5102 19.1899C21.7258 18.5883 21.7258 18.0727 21.661 17.9652C21.5964 17.8578 21.4238 17.7934 21.1651 17.6645Z" fill="white"/>
</g>
<defs>
<clipPath id="clip0_1402_18812">
<rect width="32" height="32" fill="white"/>
</clipPath>
</defs>
</svg>
