<svg width="48" height="50" viewBox="0 0 48 50" fill="none" xmlns="http://www.w3.org/2000/svg">
<path d="M36.2268 0.898791C36.087 0.826448 35.94 0.768878 35.7882 0.727016C35.5079 0.640758 35.2069 0.649377 34.9316 0.751547C34.6081 0.903042 34.3501 1.16688 34.2055 1.49414C34.1118 1.65814 34.0182 1.82214 33.9337 1.9779C33.7524 2.29054 33.5782 2.60007 33.4132 2.90136C33.0791 3.51417 32.755 4.10139 32.448 4.65991C31.8494 5.78294 31.3294 6.79514 30.9093 7.65757C30.0762 9.37931 29.6606 10.4855 29.8495 10.589C30.0384 10.6925 30.8011 9.78126 31.8905 8.2012C32.4352 7.41117 33.0634 6.45314 33.7407 5.38454C34.0711 4.84112 34.4289 4.273 34.7916 3.67729C34.971 3.38948 35.1514 3.09418 35.3327 2.7914C35.3737 3.01116 35.4259 3.22863 35.4893 3.44294C35.685 4.33998 36.1294 5.78884 36.668 8.18355C37.4487 11.5881 37.8608 15.0679 37.8971 18.5627C37.9076 21.1101 37.6495 23.6521 37.1271 26.1463C36.8358 27.52 36.4552 28.8732 35.9876 30.1974C35.4836 31.5766 34.8902 32.9215 34.2109 34.2233C33.5025 35.5402 32.699 36.8036 31.807 38.0035C30.8986 39.2167 29.8912 40.3521 28.7952 41.3981C26.6289 43.4755 24.1093 45.1474 21.3562 46.3344C20.0386 46.8912 18.6806 47.3459 17.2941 47.6946C15.9819 48.0111 14.6482 48.2285 13.304 48.3453C11.0002 48.5693 8.67763 48.4911 6.3953 48.1125C4.84238 47.833 3.31398 47.4317 1.82417 46.9125C1.29375 46.6566 0.733836 46.4671 0.157 46.3481C0.616321 46.7245 1.12875 47.0306 1.6777 47.2565C3.14863 47.9432 4.68715 48.4745 6.26846 48.8419C8.62105 49.3735 11.0367 49.5747 13.446 49.4396C14.8606 49.3694 16.2679 49.1905 17.6556 48.9045C19.1322 48.5881 20.5813 48.1529 21.9886 47.6032C24.9405 46.4283 27.6561 44.7261 30.0031 42.5794C31.1866 41.4992 32.2776 40.3214 33.2644 39.0582C34.2348 37.8074 35.1089 36.4844 35.879 35.1008C37.3442 32.4514 38.418 29.6034 39.0666 26.6462C39.632 24.0382 39.911 21.3767 39.8986 18.7091C39.8763 15.0655 39.3881 11.4409 38.4461 7.9238C38.022 6.28822 37.4679 4.68963 36.7889 3.14334L36.7075 2.97571C38.9859 4.20315 41.3577 5.24845 43.8007 6.10188C45.9473 6.85402 47.3349 7.12596 47.408 6.92439C47.5683 6.51501 42.4067 4.43453 36.5392 1.06244L36.2268 0.898791Z" fill="#00C293"/>
</svg>
