<?xml version="1.0" standalone="no"?>
<!DOCTYPE svg PUBLIC "-//W3C//DTD SVG 20010904//EN"
 "http://www.w3.org/TR/2001/REC-SVG-20010904/DTD/svg10.dtd">
<svg version="1.0" xmlns="http://www.w3.org/2000/svg"
 width="144.000000pt" height="144.000000pt" viewBox="0 0 144.000000 144.000000"
 preserveAspectRatio="xMidYMid meet">
<metadata>
Created by potrace 1.14, written by Peter Selinger 2001-2017
</metadata>
<g transform="translate(0.000000,144.000000) scale(0.100000,-0.100000)"
fill="#000000" stroke="none">
<path d="M1100 1327 c-3 -3 -48 -8 -100 -12 -52 -4 -97 -8 -100 -10 -3 -2 -39
-6 -80 -10 -41 -3 -86 -8 -100 -10 -14 -2 -59 -7 -100 -10 -41 -4 -77 -8 -80
-10 -3 -1 -45 -6 -95 -10 -49 -4 -113 -11 -142 -15 -115 -19 -219 -100 -272
-210 l-26 -55 0 -325 0 -325 30 -53 c68 -124 170 -165 355 -141 36 4 99 11
140 14 41 4 82 8 90 10 8 2 53 7 100 10 47 4 93 9 102 10 9 2 48 6 85 10 37 3
84 8 103 10 19 3 58 7 85 10 80 9 162 44 214 91 50 45 104 135 116 194 13 61
9 594 -5 636 -38 117 -130 189 -253 201 -34 3 -64 3 -67 0z"/>
</g>
</svg>
