<?xml version="1.0" encoding="UTF-8"?>
<!DOCTYPE svg PUBLIC "-//W3C//DTD SVG 1.1//EN" "http://www.w3.org/Graphics/SVG/1.1/DTD/svg11.dtd">
<svg xmlns="http://www.w3.org/2000/svg" xmlns:xlink="http://www.w3.org/1999/xlink">
    <defs>
        <clipPath id="Clock-a">
            <path fill="#fff" d="M0 0h20v20H0z"/>
        </clipPath>

        <clipPath id="Earth-a">
            <path fill="#fff" d="M0 0h20v20H0z"/>
        </clipPath>
    </defs>
    <symbol id="arrow-left" viewBox="0 0 24 24">
        <path d="M20 12H4m0 0 6-6m-6 6 6 6"/>
    </symbol>
    <symbol id="arrow-right" viewBox="0 0 24 24">
        <path d="M4 12h16m0 0-6-6m6 6-6 6"/>
    </symbol>
    <symbol id="arrow-up" viewBox="0 0 24 24">
        <path d="M12 20V4m0 0-6 6m6-6 6 6"/>
    </symbol>
    <symbol id="Bag" viewBox="0 0 32 32">
        <path stroke="#00C293" stroke-width="2"
              d="M5 26.193C6.596 28 9.57 28 15.52 28h.96c5.949 0 8.923 0 10.52-1.807m-22 0c-1.599-1.807-1.05-4.55.046-10.036.78-3.901 1.169-5.852 2.649-7.005M4.999 26.193Zm22.002 0c1.598-1.807 1.05-4.55-.047-10.036-.78-3.901-1.169-5.852-2.649-7.005m2.696 17.041Zm-2.696-17.04C22.825 8 20.71 8 16.48 8h-.96c-4.23 0-6.346 0-7.825 1.152m16.61 0Zm-16.61 0Z"/>
        <path stroke="#00C293" stroke-linecap="round" stroke-linejoin="round" stroke-width="2"
              d="m13.333 18.267 1.778 1.6 3.556-4"/>
        <path stroke="#00C293" stroke-linecap="round" stroke-width="2" d="M12 8V6.667a4 4 0 0 1 8 0V8"/>
    </symbol>
    <symbol id="Cart" viewBox="0 0 32 32">
        <path stroke="#00C293" stroke-width="2"
              d="M10 24a2 2 0 1 1 0 4 2 2 0 0 1 0-4ZM22 24a2 2 0 1 1 0 4 2 2 0 0 1 0-4Z"/>
        <path fill="#00C293"
              d="m3.015 4.122.332-.943-.332.943Zm-.017-1.065a1 1 0 1 0-.663 1.886l.663-1.886Zm3.116 2.707L6.94 5.2l-.826.564ZM7.85 19.448l-.725.688.725-.688Zm19.694-6.271.98.202v-.006l-.98-.196Zm-.667 3.233.98.202-.98-.202Zm.769-7.48-.793.61.793-.61Zm-2.135 11.137-.631-.775.631.775Zm-17.9-7.054V9.384h-2v3.63h2ZM3.347 3.18l-.349-.122-.663 1.886.348.123.664-1.887Zm11.236 18.488h7.07v-2h-7.07v2ZM7.611 9.384c0-.942.001-1.73-.068-2.369C7.47 6.354 7.316 5.75 6.94 5.2L5.29 6.328c.12.176.213.418.266.903.054.507.056 1.167.056 2.153h2ZM2.683 5.066c.89.313 1.475.52 1.906.731.404.199.582.36.7.531L6.94 5.2c-.379-.555-.883-.91-1.47-1.198-.562-.276-1.278-.526-2.123-.823l-.664 1.887Zm2.928 7.947c0 1.937.018 3.333.2 4.4.196 1.14.585 1.955 1.314 2.723l1.45-1.376c-.426-.45-.656-.89-.792-1.684-.148-.866-.172-2.077-.172-4.063h-2Zm8.972 6.654c-1.889 0-3.2-.003-4.187-.143-.953-.135-1.457-.38-1.82-.764l-1.451 1.376c.791.835 1.795 1.199 2.99 1.369 1.16.164 2.639.162 4.468.162v-2ZM6.611 9.16h16.174v-2H6.611v2Zm19.953 3.815-.666 3.233 1.959.404.666-3.233-1.959-.404ZM22.785 9.16c1.142 0 2.147.001 2.94.09.394.044.689.105.896.178.215.076.25.134.232.111l1.586-1.22c-.314-.407-.754-.637-1.155-.778-.409-.143-.87-.227-1.337-.279-.928-.103-2.057-.102-3.162-.102v2Zm5.74 4.213c.225-1.13.417-2.08.463-2.84.049-.78-.04-1.551-.55-2.213l-1.585 1.22c.083.107.174.3.14.87-.037.592-.193 1.383-.43 2.571l1.961.392Zm-6.871 8.294c1.015 0 1.868.001 2.555-.083.714-.087 1.366-.278 1.934-.742l-1.263-1.55c-.167.136-.404.245-.914.307-.538.066-1.247.068-2.312.068v2Zm4.244-5.459c-.215 1.044-.36 1.738-.533 2.25-.164.488-.318.698-.485.834l1.263 1.55c.569-.463.887-1.063 1.117-1.744.221-.656.392-1.491.597-2.486l-1.96-.404Z"/>
    </symbol>
    <symbol id="check" viewBox="0 0 20 20">
        <path fill="#00C293" fill-rule="evenodd"
              d="M3.707 9.293a1 1 0 0 0-1.414 1.414l5 5a1 1 0 0 0 1.45-.038l9-10a1 1 0 1 0-1.486-1.338l-8.295 9.217-4.255-4.255Z"
              clip-rule="evenodd"/>
    </symbol>
    <symbol id="Clock" viewBox="0 0 20 20">
        <g stroke="#ABB6CC" stroke-width="2" clip-path="url(#Clock-a)">
            <circle cx="10" cy="10" r="8.333"/>
            <path stroke-linecap="round" stroke-linejoin="round" d="M10 6.667V10l2.083 2.083"/>
        </g>

    </symbol>
    <symbol id="copy" viewBox="0 0 20 20">
        <path fill-rule="evenodd"
              d="m3 14 .117-.007a1 1 0 0 0 .876-.876L4 13V4h9l.117-.007a1 1 0 0 0 0-1.986L13 2H3l-.117.007a1 1 0 0 0-.876.876L2 3v10l.007.117a1 1 0 0 0 .876.876L3 14Zm14 4 .117-.007a1 1 0 0 0 .876-.876L18 17V7l-.007-.117a1 1 0 0 0-.764-.857l-.112-.02L17 6H7l-.117.007a1 1 0 0 0-.876.876L6 7v10l.007.117a1 1 0 0 0 .764.857l.112.02L7 18h10ZM8 8v8h8V8H8Z"
              clip-rule="evenodd"/>
    </symbol>
    <symbol id="doc-med" viewBox="0 0 24 24">
        <path d="M3.46447 2.46447C2.66191 3.26702 2.31672 4.27752 2.15536 5.47766C1.99995 6.63362 1.99997 8.10338 2 9.92683L2 10V14L2 14.0732C1.99997 15.8966 1.99995 17.3664 2.15536 18.5223C2.31672 19.7225 2.66191 20.733 3.46447 21.5355C4.26702 22.3381 5.27752 22.6833 6.47766 22.8446C7.63363 23 9.1034 23 10.9269 23H11H13H13.0731C14.8966 23 16.3664 23 17.5223 22.8446C18.7225 22.6833 19.733 22.3381 20.5355 21.5355C21.3381 20.733 21.6833 19.7225 21.8446 18.5223C22 17.3664 22 15.8966 22 14.0731V14V10V9.92686C22 8.1034 22 6.63363 21.8446 5.47766C21.6833 4.27752 21.3381 3.26702 20.5355 2.46447C19.733 1.66191 18.7225 1.31672 17.5223 1.15536C16.3664 0.99995 14.8966 0.999972 13.0732 0.999999L13 1H11L10.9268 0.999999C9.10338 0.999972 7.63362 0.99995 6.47766 1.15536C5.27752 1.31672 4.26702 1.66191 3.46447 2.46447Z"
              fill="white" stroke="white" stroke-width="2"/>
        <path d="M3 10C3 6.22876 3 4.34315 4.17157 3.17157C5.34315 2 7.22876 2 11 2H13C16.7712 2 18.6569 2 19.8284 3.17157C21 4.34315 21 6.22876 21 10V14C21 17.7712 21 19.6569 19.8284 20.8284C18.6569 22 16.7712 22 13 22H11C7.22876 22 5.34315 22 4.17157 20.8284C3 19.6569 3 17.7712 3 14V10Z"
              stroke="#ABB6CC" stroke-width="2"/>
        <path d="M12 8L12 10M12 10L12 12M12 10H9.99998M12 10L14 10" stroke="#EB135B" stroke-width="2"
              stroke-linecap="round"/>
        <path d="M8 18L16 18" stroke="#ABB6CC" stroke-width="2" stroke-linecap="round"/>
    </symbol>
    <symbol id="Earth" viewBox="0 0 20 20">
        <g clip-path="url(#Earth-a)">
            <circle cx="10" cy="10" r="8.333"/>
            <path d="M5 3.925c.65.592 1.99 2.21 2.146 3.948.146 1.623 1.217 2.942 2.854 2.96.63.007 1.265-.447 1.264-1.076 0-.195-.033-.394-.083-.577a1.178 1.178 0 0 1 .069-.847c.508-1.048 1.508-1.33 2.3-1.898.351-.253.672-.519.813-.733.39-.592.78-1.777.585-2.369M18.333 10.833c-.274.776-.468 2.813-3.568 2.845 0 0-2.745 0-3.568 1.552-.659 1.241-.274 2.586 0 3.103"/>
        </g>

    </symbol>
    <symbol id="Exit" viewBox="0 0 32 32">
        <path stroke="#00C293" stroke-width="2"
              d="M12 6h-1.333c-3.143 0-4.714 0-5.69.976C4 7.953 4 9.524 4 12.666v6.667c0 3.143 0 4.714.976 5.69.977.977 2.548.977 5.69.977H12M12 8.635c0-3.058 0-4.587.943-5.423.943-.836 2.384-.585 5.267-.082l3.105.541c3.193.557 4.79.836 5.737 2.007C28 6.848 28 8.542 28 11.93v8.14c0 3.388 0 5.081-.948 6.252-.948 1.171-2.544 1.45-5.737 2.007l-3.105.541c-2.883.503-4.324.755-5.267-.082C12 27.953 12 26.423 12 23.365V8.635Z"/>
        <path stroke="#00C293" stroke-linecap="round" stroke-width="2" d="M16 14.667v2.666"/>
    </symbol>
    <symbol id="Eye" viewBox="0 0 20 20">
        <path stroke="#ABB6CC" stroke-width="2"
              d="M2.147 12.884C1.382 11.918 1 11.434 1 10s.382-1.918 1.147-2.884C3.675 5.187 6.237 3 10 3c3.764 0 6.325 2.187 7.853 4.116C18.617 8.082 19 8.566 19 10s-.383 1.918-1.147 2.884C16.325 14.813 13.763 17 10 17c-3.764 0-6.325-2.187-7.853-4.116Z"/>
        <path stroke="#ABB6CC" stroke-width="2" d="M12.5 10a2.5 2.5 0 1 1-5 0 2.5 2.5 0 0 1 5 0Z"/>
    </symbol>
    <symbol id="Heart" viewBox="0 0 24 24">
        <path stroke-linecap="round" stroke-linejoin="round"
              d="M21 8.25c0-2.485-2.099-4.5-4.688-4.5-1.935 0-3.597 1.126-4.312 2.733-.715-1.607-2.377-2.733-4.313-2.733C5.1 3.75 3 5.765 3 8.25c0 7.22 9 12 9 12s9-4.78 9-12z"/>
    </symbol>
    <symbol id="loading" viewBox="0 0 20 20">
        <path stroke="#ABB6CC" stroke-linecap="round" stroke-width="2" d="M19 10a9 9 0 1 1-9-9"/>
    </symbol>
    <symbol id="loupe" viewBox="0 0 24 24">
        <circle cx="9.5" cy="9.5" r="9.5" transform="matrix(-1 0 0 1 22 2)"/>
        <path d="M5.5 18.5 2 22"/>
    </symbol>
    <symbol id="ok" viewBox="0 0 14 24">
        <path fill="#fff" fill-rule="evenodd"
              d="M6.986 12.41c-3.426 0-6.27-2.816-6.27-6.148C.715 2.815 3.56 0 6.985 0c3.542 0 6.27 2.815 6.27 6.262 0 3.332-2.729 6.147-6.27 6.147Zm0-8.79c-1.452 0-2.555 1.206-2.555 2.642S5.534 8.79 6.986 8.79c1.51 0 2.555-1.092 2.555-2.528S8.495 3.62 6.986 3.62Zm2.496 13.902 3.542 3.39c.697.747.697 1.838 0 2.528-.755.747-1.916.747-2.496 0l-3.542-3.447L3.56 23.44c-.348.345-.813.517-1.335.517-.407 0-.871-.172-1.278-.517-.696-.69-.696-1.781 0-2.528l3.6-3.39a16.485 16.485 0 0 1-3.716-1.608c-.87-.46-1.045-1.609-.58-2.47.58-.862 1.625-1.092 2.554-.518a8.093 8.093 0 0 0 8.361 0c.93-.574 2.032-.344 2.555.518.522.861.29 2.01-.523 2.47-1.103.69-2.38 1.206-3.716 1.609Z"
              clip-rule="evenodd"/>
    </symbol>
    <symbol id="Pills" viewBox="0 0 24 24">
        <path fill="#00C293" fill-rule="evenodd"
              d="M7.592 11.281a5.437 5.437 0 1 1 7.69-7.689l1.922 1.923-.096.495-.001.009-.013.054a4.106 4.106 0 0 1-.07.244c-.07.219-.19.545-.385.948-.388.806-1.076 1.923-2.264 3.11-1.188 1.189-2.304 1.876-3.11 2.264-.403.195-.73.315-.948.384a4.157 4.157 0 0 1-.298.084l-.009.002-.495.095-1.923-1.923ZM13.53 4.47a.75.75 0 1 0-1.06 1.06l1.5 1.5a.75.75 0 1 0 1.06-1.06l-1.5-1.5Z"
              clip-rule="evenodd"/>
        <path fill="#00C293"
              d="m18.452 6.774.003-.008 1.953 1.952a5.437 5.437 0 1 1-7.69 7.69l-1.952-1.953.007-.003a8.87 8.87 0 0 0 1.143-.461c.943-.455 2.202-1.236 3.52-2.554 1.318-1.319 2.1-2.577 2.554-3.52.227-.471.373-.863.462-1.143ZM5.286 10.648a6 6 0 1 0 8.067 8.067 6.936 6.936 0 0 1-1.695-1.247l-5.126-5.126a6.932 6.932 0 0 1-1.246-1.694Z"/>
    </symbol>
    <symbol id="pin" viewBox="0 0 16 16">
        <path fill-rule="evenodd"
              d="M6.97 15.08 8 16l1.03-.92C12.323 12.149 14 9.543 14 7.104 14 3.64 11.343 1 8 1S2 3.64 2 7.103c0 2.44 1.678 5.045 4.97 7.978ZM11 7a3 3 0 1 0-6 0 3 3 0 0 0 6 0Z"
              clip-rule="evenodd"/>
    </symbol>
    <symbol id="Star" viewBox="0 0 16 16">
        <path d="M5.86487 3.05628C6.81486 1.35209 7.28985 0.5 8 0.5C8.71015 0.5 9.18514 1.35209 10.1351 3.05628L10.3809 3.49717C10.6509 3.98145 10.7858 4.22359 10.9963 4.38336C11.2068 4.54312 11.4689 4.60243 11.9931 4.72104L12.4703 4.82902C14.3151 5.24642 15.2375 5.45511 15.4569 6.1608C15.6764 6.86648 15.0476 7.6018 13.7899 9.07244L13.4646 9.45292C13.1072 9.87083 12.9285 10.0798 12.8481 10.3383C12.7677 10.5968 12.7947 10.8756 12.8488 11.4332L12.898 11.9408C13.0881 13.9029 13.1832 14.884 12.6086 15.3202C12.0341 15.7563 11.1705 15.3587 9.44325 14.5634L8.99639 14.3576C8.50556 14.1316 8.26014 14.0186 8 14.0186C7.73986 14.0186 7.49444 14.1316 7.00362 14.3576L6.55676 14.5634C4.82951 15.3587 3.96588 15.7563 3.39136 15.3202C2.81684 14.884 2.91191 13.9029 3.10205 11.9408L3.15124 11.4332C3.20527 10.8756 3.23228 10.5968 3.1519 10.3383C3.07151 10.0798 2.89282 9.87083 2.53544 9.45292L2.21007 9.07244C0.952437 7.6018 0.323618 6.86648 0.543066 6.1608C0.762513 5.45511 1.68489 5.24642 3.52965 4.82902L4.00691 4.72104C4.53114 4.60243 4.79325 4.54312 5.00371 4.38336C5.21417 4.22359 5.34914 3.98145 5.6191 3.49718L5.86487 3.05628Z"
              fill="#FF9900"/>
    </symbol>
    <symbol id="tg" viewBox="0 0 22 17">
        <path fill="#fff"
              d="M1.482 7.308c6.77-2.765 15.53-6.135 16.74-6.602 3.172-1.22 4.145-.987 3.66 1.717-.349 1.944-1.354 8.378-2.156 12.384-.475 2.375-1.543 2.656-3.22 1.629-.807-.495-4.88-2.995-5.764-3.582-.806-.535-1.92-1.179-.524-2.446.497-.452 3.752-3.337 6.289-5.583.332-.295-.085-.78-.469-.543a3087.12 3087.12 0 0 0-8.762 5.406c-.911.574-1.787.837-3.358.418-1.187-.316-2.347-.694-2.798-.837-1.738-.554-1.326-1.272.362-1.961Z"/>
    </symbol>
    <symbol id="triangle-left" viewBox="0 0 20 20">
        <path d="M12.5 4.167 7.5 10l5 5.833"/>
    </symbol>
    <symbol id="triangle-right" viewBox="0 0 20 20">
        <path d="m7.5 4.167 5 5.833-5 5.833"/>
    </symbol>
    <symbol id="vk" viewBox="0 0 25 15">
        <path fill="#fff"
              d="M13.572 15C5.372 15 .695 9.37.5 0h4.107c.135 6.877 3.163 9.79 5.562 10.39V0h3.868v5.93c2.368-.254 4.856-2.957 5.696-5.93H23.6c-.644 3.664-3.343 6.366-5.261 7.477 1.919.901 4.992 3.259 6.161 7.523h-4.258c-.914-2.853-3.192-5.06-6.205-5.36V15h-.465Z"/>
    </symbol>
</svg>