<svg width="16" height="16" viewBox="0 0 16 16" fill="none" xmlns="http://www.w3.org/2000/svg">
<path d="M14.667 5.66668C14.667 7.84001 13.067 9.63334 10.987 9.94668V9.90668C10.7804 7.32001 8.68038 5.22001 6.07371 5.01334H6.05371C6.36704 2.93334 8.16038 1.33334 10.3337 1.33334C12.727 1.33334 14.667 3.27334 14.667 5.66668Z" fill="#E1EAFF"/>
<path d="M9.98634 9.98667C9.81967 7.87333 8.12634 6.18 6.01301 6.01333C5.89967 6.00667 5.77967 6 5.66634 6C3.27301 6 1.33301 7.94 1.33301 10.3333C1.33301 12.7267 3.27301 14.6667 5.66634 14.6667C8.05967 14.6667 9.99967 12.7267 9.99967 10.3333C9.99967 10.22 9.99301 10.1 9.98634 9.98667ZM6.25301 10.92L5.66634 12L5.07967 10.92L3.99967 10.3333L5.07967 9.74667L5.66634 8.66667L6.25301 9.74667L7.33301 10.3333L6.25301 10.92Z" fill="#E1EAFF"/>
</svg>
