<svg width="16" height="16" viewBox="0 0 16 16" fill="none" xmlns="http://www.w3.org/2000/svg">
<path d="M14.8003 3.46666C14.467 3.06666 14.0003 2.79999 13.467 2.79999H3.93366L3.80033 2.53332C3.46699 1.39999 2.46699 0.666656 1.33366 0.666656C0.933659 0.666656 0.666992 0.933323 0.666992 1.33332C0.666992 1.73332 0.933659 1.99999 1.33366 1.99999C1.86699 1.99999 2.40033 2.39999 2.53366 2.93332L3.00033 4.46666L4.46699 9.19999C4.80033 10.4 5.86699 11.2 7.13366 11.2H11.5337C12.867 11.2 13.9337 10.2667 14.267 8.99999L15.2003 4.93332C15.267 4.46666 15.1337 3.93332 14.8003 3.46666Z" fill="#00C293"/>
<path d="M7.33398 6.80951L8.78853 8.33332L11.334 5.66666" stroke="#DBF6F0" stroke-width="1.5" stroke-linecap="round" stroke-linejoin="round"/>
<path d="M6.60052 15.3333C7.55781 15.3333 8.33385 14.5573 8.33385 13.6C8.33385 12.6427 7.55781 11.8667 6.60052 11.8667C5.64323 11.8667 4.86719 12.6427 4.86719 13.6C4.86719 14.5573 5.64323 15.3333 6.60052 15.3333Z" fill="#00C293"/>
<path d="M11.8671 15.3333C12.8244 15.3333 13.6005 14.5573 13.6005 13.6C13.6005 12.6427 12.8244 11.8667 11.8671 11.8667C10.9098 11.8667 10.1338 12.6427 10.1338 13.6C10.1338 14.5573 10.9098 15.3333 11.8671 15.3333Z" fill="#00C293"/>
</svg>
