<svg width="16" height="16" viewBox="0 0 16 16" fill="none" xmlns="http://www.w3.org/2000/svg">
<g clip-path="url(#clip0_1441_22150)">
<circle cx="8" cy="8" r="8" fill="#7AA0DB"/>
<path d="M3.27344 4.81814C3.27344 4.11523 3.84326 3.54541 4.54616 3.54541H8.18253C8.88544 3.54541 9.45526 4.11523 9.45526 4.81814C9.45526 5.52105 8.88544 6.09086 8.18253 6.09086H4.54616C3.84326 6.09086 3.27344 5.52105 3.27344 4.81814Z" fill="white"/>
<path d="M6.54616 7.99996C6.54616 7.29705 7.11598 6.72723 7.81889 6.72723H11.4553C12.1582 6.72723 12.728 7.29705 12.728 7.99996C12.728 8.70286 12.1582 9.27268 11.4553 9.27268H7.81889C7.11598 9.27268 6.54616 8.70286 6.54616 7.99996Z" fill="white"/>
<path d="M3.27344 11.1818C3.27344 10.4789 3.84326 9.90905 4.54616 9.90905H8.18253C8.88544 9.90905 9.45526 10.4789 9.45526 11.1818C9.45526 11.8847 8.88544 12.4545 8.18253 12.4545H4.54616C3.84326 12.4545 3.27344 11.8847 3.27344 11.1818Z" fill="white"/>
<path d="M10.1825 4.81814C10.1825 4.11523 10.7523 3.54541 11.4553 3.54541C12.1582 3.54541 12.728 4.11523 12.728 4.81814C12.728 5.52105 12.1582 6.09086 11.4553 6.09086C10.7523 6.09086 10.1825 5.52105 10.1825 4.81814Z" fill="white"/>
<path d="M3.27344 7.99996C3.27344 7.29705 3.84326 6.72723 4.54616 6.72723C5.24907 6.72723 5.81889 7.29705 5.81889 7.99996C5.81889 8.70286 5.24907 9.27268 4.54616 9.27268C3.84326 9.27268 3.27344 8.70286 3.27344 7.99996Z" fill="white"/>
<path d="M10.1825 11.1818C10.1825 10.4789 10.7523 9.90905 11.4553 9.90905C12.1582 9.90905 12.728 10.4789 12.728 11.1818C12.728 11.8847 12.1582 12.4545 11.4553 12.4545C10.7523 12.4545 10.1825 11.8847 10.1825 11.1818Z" fill="white"/>
</g>
<defs>
<clipPath id="clip0_1441_22150">
<rect width="16" height="16" fill="white"/>
</clipPath>
</defs>
</svg>
