<svg width="32" height="32" viewBox="0 0 32 32" fill="none" xmlns="http://www.w3.org/2000/svg">
<g clip-path="url(#clip0_318_5075)">
<path d="M32 16C32 24.8366 24.8366 32 16 32C7.16344 32 0 24.8366 0 16C0 7.16344 7.16344 0 16 0C24.8366 0 32 7.16344 32 16Z" fill="#00B887"/>
<path d="M21.8337 14.3333C21.8337 17.6494 18.1389 21.4933 16.6304 22.9245C16.2726 23.264 15.7281 23.264 15.3703 22.9245C13.8617 21.4933 10.167 17.6494 10.167 14.3333C10.167 11.1117 12.7787 8.5 16.0003 8.5C19.222 8.5 21.8337 11.1117 21.8337 14.3333Z" stroke="white" stroke-width="2"/>
<circle cx="16.0003" cy="13.9166" r="2.08333" stroke="white" stroke-width="2"/>
</g>
<defs>
<clipPath id="clip0_318_5075">
<rect width="32" height="32" fill="white"/>
</clipPath>
</defs>
</svg>
