<svg width="32" height="32" viewBox="0 0 32 32" fill="none" xmlns="http://www.w3.org/2000/svg">
<g clip-path="url(#clip0_318_5060)">
<path d="M32 16C32 24.8366 24.8366 32 16 32C7.16344 32 0 24.8366 0 16C0 7.16344 7.16344 0 16 0C24.8366 0 32 7.16344 32 16Z" fill="#00C293"/>
<g clip-path="url(#clip1_318_5060)">
<path d="M21.8333 10.1667H10.1667C9.24619 10.1667 8.5 10.9129 8.5 11.8334V20.1667C8.5 21.0872 9.24619 21.8334 10.1667 21.8334H21.8333C22.7538 21.8334 23.5 21.0872 23.5 20.1667V11.8334C23.5 10.9129 22.7538 10.1667 21.8333 10.1667Z" stroke="white" stroke-width="2" stroke-linecap="round" stroke-linejoin="round"/>
<path d="M8.5 11.8333L16 16.8333L23.5 11.8333" stroke="white" stroke-width="2" stroke-linecap="round" stroke-linejoin="round"/>
</g>
</g>
<defs>
<clipPath id="clip0_318_5060">
<rect width="32" height="32" fill="white"/>
</clipPath>
<clipPath id="clip1_318_5060">
<rect width="20" height="20" fill="white" transform="translate(6 6)"/>
</clipPath>
</defs>
</svg>
