<svg width="24" height="24" viewBox="0 0 24 24" fill="none" xmlns="http://www.w3.org/2000/svg">
<g clip-path="url(#clip0_2_27)">
<circle cx="12" cy="12" r="12" fill="white"/>
<path fill-rule="evenodd" clip-rule="evenodd" d="M24 12C24 5.37258 18.6274 0 12 0C5.37258 0 0 5.37258 0 12C0 18.6274 5.37258 24 12 24C18.6274 24 24 18.6274 24 12ZM12 5.1C12.4971 5.1 12.9 5.50294 12.9 6V13.2C12.9 13.6971 12.4971 14.1 12 14.1C11.5029 14.1 11.1 13.6971 11.1 13.2V6C11.1 5.50294 11.5029 5.1 12 5.1ZM12 18C12.6627 18 13.2 17.4627 13.2 16.8C13.2 16.1373 12.6627 15.6 12 15.6C11.3373 15.6 10.8 16.1373 10.8 16.8C10.8 17.4627 11.3373 18 12 18Z" fill="#FF9900"/>
</g>
<defs>
<clipPath id="clip0_2_27">
<rect width="24" height="24" fill="white"/>
</clipPath>
</defs>
</svg>
