<svg width="164" height="32" viewBox="0 0 164 32" fill="none" xmlns="http://www.w3.org/2000/svg">
<path d="M56.1094 7.69922H52.418V9.79688H51.5273C48.5664 9.79688 46.3711 10.375 44.9414 11.5312C43.5117 12.6797 42.7969 14.2773 42.7969 16.3242C42.7969 18.3633 43.5078 19.9609 44.9297 21.1172C46.3516 22.2734 48.5547 22.8516 51.5391 22.8516H52.418V25.2305H56.1094V22.8516H56.9883C59.9648 22.8516 62.1641 22.2773 63.5859 21.1289C65.0156 19.9727 65.7305 18.3711 65.7305 16.3242C65.7305 14.2852 65.0156 12.6875 63.5859 11.5312C62.1562 10.375 59.9609 9.79688 57 9.79688H56.1094V7.69922ZM57.0469 12.5742C58.8984 12.5742 60.1797 12.9023 60.8906 13.5586C61.6094 14.2148 61.9688 15.1484 61.9688 16.3594C61.9688 17.5859 61.6094 18.5195 60.8906 19.1602C60.1797 19.8008 58.8984 20.1211 57.0469 20.1211H56.1094V12.5742H57.0469ZM51.4805 12.5742H52.418V20.1211H51.4805C49.6367 20.1211 48.3555 19.7969 47.6367 19.1484C46.918 18.4922 46.5586 17.5547 46.5586 16.3359C46.5586 15.1172 46.918 14.1875 47.6367 13.5469C48.3555 12.8984 49.6367 12.5742 51.4805 12.5742Z" fill="#00C293"/>
<path d="M65.5613 24.9961H69.2761L74.0222 13.3359C74.155 13 74.2644 12.6758 74.3503 12.3633C74.4441 12.0508 74.5339 11.7578 74.6198 11.4844H74.7136C74.7995 11.7578 74.8894 12.0508 74.9831 12.3633C75.0769 12.6758 75.1902 13 75.323 13.3359L80.0339 24.9961H84.2175L76.7527 7.86328H73.0027L65.5613 24.9961ZM69.2175 21.2578H80.3503L79.3425 18.5273H70.2136L69.2175 21.2578Z" fill="#00C293"/>
<path d="M85.8347 24.9961H89.6433V19.3828H93.862C96.0964 19.4141 97.7956 18.9258 98.9597 17.918C100.124 16.9102 100.706 15.4883 100.706 13.6523C100.706 11.7773 100.12 10.3555 98.948 9.38672C97.7839 8.41797 96.0964 7.93359 93.8855 7.93359H85.8347V24.9961ZM89.6433 16.6406V10.7461H93.3816C94.6706 10.7461 95.5808 10.9922 96.112 11.4844C96.6433 11.9766 96.9089 12.707 96.9089 13.6758C96.9089 14.6367 96.6433 15.3711 96.112 15.8789C95.5808 16.3867 94.6706 16.6406 93.3816 16.6406H89.6433Z" fill="#00C293"/>
<path d="M103.132 24.9961H106.366L106.354 14.1094C106.354 13.8672 106.346 13.6172 106.331 13.3594C106.315 13.0938 106.3 12.8398 106.284 12.5977H106.366C106.421 12.8398 106.487 13.0938 106.565 13.3594C106.643 13.6172 106.737 13.8633 106.846 14.0977L111.956 24.9961H115.038L120.171 14.0859C120.272 13.8516 120.362 13.6016 120.44 13.3359C120.518 13.0703 120.581 12.8203 120.628 12.5859H120.71C120.694 12.8203 120.678 13.0703 120.663 13.3359C120.647 13.6016 120.639 13.8516 120.639 14.0859V24.9961H124.389V7.93359H119.842L114.276 19.6523C114.167 19.8945 114.061 20.1445 113.96 20.4023C113.858 20.6523 113.78 20.8711 113.725 21.0586H113.667C113.612 20.8711 113.526 20.6523 113.409 20.4023C113.3 20.1523 113.19 19.9023 113.081 19.6523L107.585 7.93359H103.132V24.9961Z" fill="#00C293"/>
<path d="M127.342 16.7812C127.342 19.6953 128.175 21.8516 129.839 23.25C131.51 24.6406 133.71 25.3359 136.436 25.3359C139.046 25.3359 141.061 24.8008 142.483 23.7305C143.905 22.6523 144.678 21.1602 144.803 19.2539L144.815 18.9023H140.971L140.948 19.2422C140.854 20.25 140.46 21.0508 139.764 21.6445C139.077 22.2305 137.948 22.5234 136.378 22.5234C134.831 22.5234 133.596 22.1016 132.675 21.2578C131.753 20.4141 131.292 19.0273 131.292 17.0977V15.832C131.292 13.9805 131.753 12.6172 132.675 11.7422C133.604 10.8672 134.839 10.4297 136.378 10.4297C137.776 10.4297 138.862 10.6914 139.635 11.2148C140.409 11.7305 140.846 12.5586 140.948 13.6992L140.96 14.0391H144.815L144.792 13.7109C144.651 11.6719 143.846 10.1445 142.378 9.12891C140.909 8.10547 138.925 7.59375 136.425 7.59375C133.729 7.59375 131.542 8.29688 129.862 9.70312C128.182 11.1094 127.342 13.2578 127.342 16.1484V16.7812Z" fill="#00C293"/>
<path d="M163.483 24.9961V7.93359H159.417L151.753 18.7734C151.573 19.0234 151.421 19.2695 151.296 19.5117C151.178 19.7539 151.077 19.9766 150.991 20.1797H150.815C150.823 19.9375 150.831 19.6719 150.839 19.3828C150.846 19.0859 150.85 18.8125 150.85 18.5625V7.93359H147.124V24.9961H151.19L158.854 14.1328C159.05 13.8594 159.202 13.6133 159.311 13.3945C159.421 13.1758 159.53 12.9453 159.639 12.7031H159.803C159.788 12.9453 159.776 13.2109 159.768 13.5C159.76 13.7891 159.757 14.0664 159.757 14.332V24.9961H163.483Z" fill="#00C293"/>
<rect width="36" height="28" rx="8" transform="matrix(0.994522 -0.104528 0 1 0 3.76562)" fill="#00C293"/>
<path d="M19.7318 6.89844V8.99609L20.6175 8.903C23.5622 8.5935 25.7455 8.94215 27.1674 9.94896C28.5892 10.9558 29.3001 12.4787 29.3001 14.5178C29.3001 16.5646 28.5892 18.2409 27.1674 19.5466C25.7533 20.8437 23.5661 21.6478 20.6059 21.9589L19.7318 22.0508V24.4297L16.0606 24.8155V22.4366L15.1865 22.5285C12.2185 22.8405 10.0274 22.4926 8.61332 21.485C7.19923 20.4774 6.49219 18.954 6.49219 16.915C6.49219 14.8681 7.20312 13.1957 8.62497 11.8978C10.0468 10.5921 12.2301 9.78455 15.1748 9.47505L16.0606 9.38195V7.28429L19.7318 6.89844ZM20.6641 11.6754L19.7318 11.7734V19.3203L20.6641 19.2223C22.5055 19.0288 23.7798 18.5745 24.4868 17.8596C25.2016 17.1438 25.559 16.1727 25.559 14.9461C25.559 13.7352 25.2016 12.8392 24.4868 12.258C23.7798 11.6761 22.5055 11.4819 20.6641 11.6754ZM15.1282 12.2573C13.2946 12.45 12.0203 12.9082 11.3055 13.6317C10.5907 14.3475 10.2333 15.3147 10.2333 16.5335C10.2333 17.7522 10.5907 18.6522 11.3055 19.2333C12.0203 19.8066 13.2946 19.9969 15.1282 19.8042L16.0606 19.7062V12.1593L15.1282 12.2573Z" fill="white"/>
</svg>
